<?xml version="1.0" encoding="utf-8"?>
<!-- Generator: Adobe Illustrator 22.1.0, SVG Export Plug-In . SVG Version: 6.00 Build 0)  -->
<svg version="1.1" id="Layer_4_1_" xmlns="http://www.w3.org/2000/svg" xmlns:xlink="http://www.w3.org/1999/xlink" x="0px" y="0px"
	 viewBox="0 0 37 37" style="enable-background:new 0 0 37 37;" xml:space="preserve">
<style type="text/css">
	.st0{fill:#241C1C;}
	.st1{fill:#00F6FD;}
</style>
<g>
	<polygon class="st0" points="2.9,19.9 3,11.8 2.3,10.2 1.7,20.6 	"/>
	<path class="st0" d="M9,24.7c-1.6-2.8-5.4-4.4-5.9-4.6l-1.3,0.7l7.1,5.9C9.1,27,9.4,27,9.7,26.8l0.3-0.2L9,24.7z"/>
	<path class="st0" d="M14.5,23.3l-2.2-3.7c0-0.1,0-0.2,0-0.3l1.4-1.2l-0.7-0.4l-2,1.8L10,20.2c-1.1,0.7-2.6,0.3-3.2-0.9l0,0l-3.5-7
		l-0.1,7.6c0.6,0.3,4.4,1.8,6,4.7l1.1,1.9l3.6-2.1l2.5-0.8l0-0.8l-1.7,0.6C14.7,23.5,14.6,23.4,14.5,23.3z"/>
	<polygon class="st0" points="26.6,1.7 33.6,5.9 35.3,6 26.6,0.3 	"/>
	<path class="st0" d="M19.4,4.6c3.2,0,6.5-2.5,6.9-2.8l0.1-1.5l-8.6,3.2c-0.3,0.1-0.5,0.4-0.5,0.7v0.4H19.4z"/>
	<path class="st0" d="M17.8,10.1h4.3c0.1,0,0.2,0.1,0.2,0.2l0.3,1.8l0.7-0.4L22.8,9V7.8c0-1.3,1.1-2.4,2.4-2.4l0,0L33,5.9L26.4,2
		c-0.5,0.4-3.8,2.9-7,2.9h-2.2V9l-0.6,2.6l0.7,0.4l0.3-1.8C17.7,10.1,17.7,10.1,17.8,10.1z"/>
	<polygon class="st0" points="30.5,31.3 23.4,35.3 22.4,36.8 31.7,32.1 	"/>
	<path class="st0" d="M31.7,23.7c-1.6,2.8-1.1,6.8-1,7.4l1.3,0.8l1.5-9.1c0.1-0.3-0.1-0.6-0.4-0.8l-0.3-0.2L31.7,23.7z"/>
	<path class="st0" d="M27.7,19.6l-2.2,3.7c0,0.1-0.2,0.1-0.2,0.1l-1.7-0.6l0,0.8l2.5,0.8l1.1,0.6c1.1,0.7,1.5,2.1,0.9,3.2l0,0
		l-4.3,6.5l6.6-3.7c-0.1-0.7-0.6-4.7,1-7.5l1.1-1.9l-3.6-2.1l-2-1.8l-0.7,0.4l1.4,1.2C27.7,19.4,27.7,19.5,27.7,19.6z"/>
	<path class="st0" d="M20.8,20.3h-1.6c0,0-0.1,0-0.1,0.1l-0.8,2.7c0.5,0.2,1.1,0.3,1.7,0.3c0.6,0,1.2-0.1,1.7-0.3L20.8,20.3
		C20.9,20.4,20.8,20.3,20.8,20.3z"/>
	<path class="st0" d="M17.3,17l0.8-1.4c0,0,0-0.1,0-0.1l-1.9-2c-0.8,0.8-1.4,1.8-1.7,2.9l2.7,0.6C17.2,17.1,17.3,17.1,17.3,17z"/>
	<path class="st0" d="M23.8,13.5l-1.9,2c0,0,0,0.1,0,0.1l0.8,1.4c0,0,0.1,0.1,0.1,0l2.7-0.6C25.3,15.3,24.7,14.3,23.8,13.5z"/>
	<path class="st0" d="M22,12.4l-0.2-1.6h-3.5L18,12.4c-0.6,0.2-1.1,0.6-1.6,0.9L17,14c0.8-0.7,1.9-1.1,3-1.1c1.1,0,2.2,0.4,3,1.1
		l0.6-0.6C23.1,12.9,22.6,12.6,22,12.4z M18.4,12.2l0.2-1.1h2.9l0.2,1.1H18.4z"/>
	<polygon class="st1" points="18.7,11.9 18.7,11.3 21.3,11.3 21.4,11.9 	"/>
	<path class="st0" d="M15.2,17.7c0-0.3,0-0.5,0.1-0.7l-0.9-0.2c-0.1,0.3-0.1,0.6-0.1,0.9c0,0.3,0,0.6,0.1,0.9l-1.3,1l1.7,3l1.5-0.6
		c0.5,0.4,1,0.7,1.6,0.9l0.3-0.8C16.5,21.4,15.2,19.7,15.2,17.7z M15,22.2l-1.5-2.5l0.8-0.7l1.6,2.8L15,22.2z"/>
	<polygon class="st1" points="13.9,19.8 14.4,19.4 15.7,21.7 15.1,21.9 	"/>
	<path class="st0" d="M25.6,18.6c0-0.3,0.1-0.6,0.1-0.9c0-0.3,0-0.6-0.1-1l-0.9,0.2c0,0.2,0.1,0.5,0.1,0.8c0,2-1.3,3.8-3.1,4.5
		L22,23c0.6-0.2,1.1-0.5,1.6-0.9l1.5,0.6l1.7-3L25.6,18.6z M25,22.2l-1-0.4l1.6-2.8l0.8,0.7L25,22.2z"/>
	<polygon class="st1" points="24.3,21.7 25.7,19.4 26.1,19.8 24.9,21.9 	"/>
	<path class="st0" d="M24.5,17l-1.6,0.4c0,0,0,0-0.1,0c-0.1,0-0.3-0.1-0.3-0.2l-0.8-1.4c-0.1-0.1-0.1-0.3,0-0.4l1.1-1.2
		c-0.8-0.6-1.7-1-2.8-1c-1.1,0-2,0.4-2.8,1l1.1,1.2c0.1,0.1,0.1,0.3,0,0.4l-0.8,1.4c-0.1,0.1-0.2,0.2-0.3,0.2c0,0,0,0-0.1,0L15.6,17
		c0,0.2-0.1,0.5-0.1,0.7c0,1.9,1.2,3.5,2.9,4.2l0.5-1.6c0.1-0.2,0.2-0.3,0.4-0.3h1.6c0.2,0,0.3,0.1,0.4,0.3l0.5,1.6
		c1.7-0.7,2.9-2.3,2.9-4.2C24.5,17.4,24.5,17.2,24.5,17z M21.2,18.4c-0.3,0.4-0.7,0.7-1.2,0.7c-0.2,0-0.5-0.1-0.7-0.2
		c-0.7-0.4-0.9-1.3-0.5-1.9c0.3-0.4,0.7-0.7,1.2-0.7c0.2,0,0.5,0.1,0.7,0.2c0.3,0.2,0.6,0.5,0.7,0.9C21.5,17.7,21.4,18,21.2,18.4z"
		/>
	<circle class="st1" cx="20" cy="17.7" r="1.2"/>
</g>
</svg>
