<?xml version="1.0" encoding="UTF-8" standalone="no"?>
<!-- Created with Inkscape (http://www.inkscape.org/) -->

<svg
   xmlns:dc="http://purl.org/dc/elements/1.1/"
   xmlns:cc="http://creativecommons.org/ns#"
   xmlns:rdf="http://www.w3.org/1999/02/22-rdf-syntax-ns#"
   xmlns:svg="http://www.w3.org/2000/svg"
   xmlns="http://www.w3.org/2000/svg"
   xmlns:sodipodi="http://sodipodi.sourceforge.net/DTD/sodipodi-0.dtd"
   xmlns:inkscape="http://www.inkscape.org/namespaces/inkscape"
   version="1.1"
   id="svg2"
   width="53"
   height="53"
   viewBox="0 0 53 53"
   sodipodi:docname="Thermite Grenade.svg"
   inkscape:version="0.92.4 (5da689c313, 2019-01-14)">
  <metadata
     id="metadata8">
    <rdf:RDF>
      <cc:Work
         rdf:about="">
        <dc:format>image/svg+xml</dc:format>
        <dc:type
           rdf:resource="http://purl.org/dc/dcmitype/StillImage" />
        <dc:title></dc:title>
      </cc:Work>
    </rdf:RDF>
  </metadata>
  <defs
     id="defs6" />
  <sodipodi:namedview
     pagecolor="#ffffff"
     bordercolor="#666666"
     borderopacity="1"
     objecttolerance="10"
     gridtolerance="10"
     guidetolerance="10"
     inkscape:pageopacity="0"
     inkscape:pageshadow="2"
     inkscape:window-width="1366"
     inkscape:window-height="705"
     id="namedview4"
     showgrid="false"
     inkscape:pagecheckerboard="true"
     inkscape:zoom="8"
     inkscape:cx="13.073317"
     inkscape:cy="26.02979"
     inkscape:window-x="-8"
     inkscape:window-y="-8"
     inkscape:window-maximized="1"
     inkscape:current-layer="svg2"
     fit-margin-top="0"
     fit-margin-left="0"
     fit-margin-right="0"
     fit-margin-bottom="0">
    <inkscape:grid
       type="xygrid"
       id="grid819"
       originx="-856.93164"
       originy="-262.42578" />
  </sodipodi:namedview>
  <g
     inkscape:groupmode="layer"
     id="layer2"
     inkscape:label="Thermite 1"
     style="display:inline"
     transform="translate(-856.93164,-584.57422)" />
  <g
     inkscape:groupmode="layer"
     id="layer1"
     inkscape:label="Thermite"
     style="display:inline"
     transform="translate(-856.93164,-584.57422)">
    <path
       style="fill:#c0bebf;fill-opacity:1;stroke:none;stroke-width:1px;stroke-linecap:butt;stroke-linejoin:miter;stroke-opacity:1"
       d="m 881.29402,606.29401 -11.75176,11.35564 7.08626,7.13028 11.17958,-10.82747 0.044,-1.54049 z"
       id="path925"
       inkscape:connector-curvature="0" />
  </g>
  <g
     id="g1068"
     transform="translate(-856.93164,-584.57422)">
    <path
       inkscape:connector-curvature="0"
       id="path817"
       d="m 886.80859,594.99805 c -1.15698,1.49434 -2.48313,2.22938 -4.10742,0.68554 L 862.84375,615.22852 878.7793,631.22461 899,612 c -1.82771,-1.77434 -0.62126,-3.65174 0.50586,-4.45508 l -3.81641,-3.85547 C 891.88026,607.32622 886.90663,602.7199 891,599 Z m -5.60156,9.71093 7.65625,7.28125 0.0625,2.61524 -12.26367,11.63867 -8.52734,-8.58984 z"
       style="display:inline;fill:#e6e6e6;fill-opacity:1;stroke:none;stroke-width:0.25;stroke-linecap:butt;stroke-linejoin:miter;stroke-opacity:1;stroke-miterlimit:4;stroke-dasharray:none" />
    <g
       id="g876"
       style="display:inline">
      <path
         style="fill:#d6332a;fill-opacity:1;stroke:none;stroke-width:0.95599806px;stroke-linecap:butt;stroke-linejoin:miter;stroke-opacity:1"
         d="m 895.24082,586.039 -7.84095,7.85317 -1.9092,-1.72117 6.82667,-6.78485 c 1.07647,0.0401 2.07163,0.22174 2.92348,0.65285 z"
         id="path821"
         inkscape:connector-curvature="0"
         sodipodi:nodetypes="ccccc" />
      <path
         style="fill:#d6332a;fill-opacity:1;stroke:none;stroke-width:0.95599806px;stroke-linecap:butt;stroke-linejoin:miter;stroke-opacity:1"
         d="m 908.49029,599.19026 -7.7763,7.63627 1.88647,1.78985 6.54612,-6.51794 c -0.0403,-1.07083 -0.22291,-2.06079 -0.65629,-2.90818 z"
         id="path821-8"
         inkscape:connector-curvature="0"
         sodipodi:nodetypes="ccccc" />
      <path
         style="fill:#d6332a;fill-opacity:1;stroke:none;stroke-width:0.95599806px;stroke-linecap:butt;stroke-linejoin:miter;stroke-opacity:1"
         d="m 892.52611,598.91083 3.30268,3.46136 6.5391,-6.54689 c 1.70065,-2.54951 -1.47425,-5.08204 -3.55579,-3.20956 z"
         id="path838"
         inkscape:connector-curvature="0"
         sodipodi:nodetypes="ccccc" />
      <path
         style="fill:#d6332a;fill-opacity:1;stroke:none;stroke-width:0.95599806px;stroke-linecap:butt;stroke-linejoin:miter;stroke-opacity:1"
         d="m 887.70843,594.25907 0.84048,0.80629 c 1.85064,-1.67209 3.89993,0.37645 2.37381,2.3465 l 1.00517,0.97746 6.19386,-6.42913 c 2.87625,-2.9669 7.83691,1.76183 4.97105,4.42157 l -6.5695,6.45754 0.65438,0.63627 c 1.78588,-1.5074 4.00713,0.44832 2.46201,2.36719 l 0.77686,0.70189 7.89567,-7.87897 c -0.35436,-4.09492 -4.09773,-10.48374 -12.42517,-12.43968 z"
         id="path840"
         inkscape:connector-curvature="0"
         sodipodi:nodetypes="ccccccccccccc" />
    </g>
    <path
       inkscape:connector-curvature="0"
       id="path905"
       d="m 861.97266,616.53516 -5.04102,5.53906 2.09375,7.79101 5.81055,5.7793 7.84375,1.92969 5.29101,-5.10547 z m 1.06445,3.29296 a 1.1443661,1.1663733 0 0 1 0.002,0 1.1443661,1.1663733 0 0 1 1.16602,0.99415 l 0.008,0.084 a 1.1443661,1.1663733 0 0 1 -1.0332,1.25 1.1443661,1.1663733 0 0 1 -1.24414,-1.03125 1.1443661,1.1663733 0 0 1 0.98828,-1.28711 1.1443661,1.1663733 0 0 1 0.11328,-0.01 z m -3.125,2.77344 a 1.1443661,1.1663733 0 0 1 0.002,0 1.1443661,1.1663733 0 0 1 1.16602,0.99414 l 0.008,0.084 a 1.1443661,1.1663733 0 0 1 -1.0332,1.25 1.1443661,1.1663733 0 0 1 -1.24414,-1.03321 1.1443661,1.1663733 0 0 1 0.98828,-1.28515 1.1443661,1.1663733 0 0 1 0.11328,-0.01 z m 4.18164,1.09961 a 1.1443661,1.1663733 0 0 1 1.16602,0.99414 l 0.01,0.084 a 1.1443661,1.1663733 0 0 1 -1.03515,1.25 1.1443661,1.1663733 0 0 1 -1.24219,-1.03125 1.1443661,1.1663733 0 0 1 0.98828,-1.28711 1.1443661,1.1663733 0 0 1 0.11328,-0.01 z m 3.96094,1.58594 a 1.1443661,1.1663733 0 0 1 0.002,0 1.1443661,1.1663733 0 0 1 1.16602,0.99414 l 0.008,0.084 a 1.1443661,1.1663733 0 0 1 -1.0332,1.24805 1.1443661,1.1663733 0 0 1 -1.24415,-1.03125 1.1443661,1.1663733 0 0 1 0.98829,-1.28515 1.1443661,1.1663733 0 0 1 0.11328,-0.01 z m -6.73438,1.09961 a 1.1443661,1.1663733 0 0 1 0.002,0 1.1443661,1.1663733 0 0 1 1.16601,0.99414 l 0.008,0.084 a 1.1443661,1.1663733 0 0 1 -1.0332,1.25 1.1443661,1.1663733 0 0 1 -1.24414,-1.03125 1.1443661,1.1663733 0 0 1 0.98828,-1.28711 1.1443661,1.1663733 0 0 1 0.11328,-0.01 z m 3.96289,1.32031 a 1.1443661,1.1663733 0 0 1 1.16602,0.99414 l 0.01,0.084 a 1.1443661,1.1663733 0 0 1 -1.03515,1.25 1.1443661,1.1663733 0 0 1 -1.24414,-1.03125 1.1443661,1.1663733 0 0 1 0.99023,-1.28711 1.1443661,1.1663733 0 0 1 0.11328,-0.01 z m 4.39844,1.43164 a 1.2323943,1.2323943 0 0 1 1.25586,1.04883 l 0.01,0.0898 a 1.2323943,1.2323943 0 0 1 -1.11329,1.32032 1.2323943,1.2323943 0 0 1 -1.33984,-1.0918 1.2323943,1.2323943 0 0 1 1.06445,-1.35742 1.2323943,1.2323943 0 0 1 0.12305,-0.01 z m 3.83203,1.58399 a 1.1443661,1.1663733 0 0 1 1.16602,0.99414 l 0.01,0.084 a 1.1443661,1.1663733 0 0 1 -1.03515,1.24805 1.1443661,1.1663733 0 0 1 -1.24414,-1.03125 1.1443661,1.1663733 0 0 1 0.99023,-1.28516 1.1443661,1.1663733 0 0 1 0.11328,-0.01 z m -6.60351,1.29882 a 1.1443661,1.1663733 0 0 1 0.002,0 1.1443661,1.1663733 0 0 1 1.16601,0.99414 l 0.008,0.084 a 1.1443661,1.1663733 0 0 1 -1.03321,1.24805 1.1443661,1.1663733 0 0 1 -1.24414,-1.03125 1.1443661,1.1663733 0 0 1 0.98829,-1.28711 1.1443661,1.1663733 0 0 1 0.11328,-0.008 z m 4.09375,1.2754 a 1.1443661,1.1663733 0 0 1 0.002,0 1.1443661,1.1663733 0 0 1 1.16406,0.99414 l 0.01,0.084 a 1.1443661,1.1663733 0 0 1 -1.03516,1.25 1.1443661,1.1663733 0 0 1 -1.24219,-1.03125 1.1443661,1.1663733 0 0 1 0.98828,-1.28711 1.1443661,1.1663733 0 0 1 0.11329,-0.01 z"
       style="display:inline;fill:#d6332a;fill-opacity:1;stroke:none;stroke-width:1px;stroke-linecap:butt;stroke-linejoin:miter;stroke-opacity:1" />
    <path
       inkscape:connector-curvature="0"
       id="path907"
       d="m 858.62676,630.74384 5.19367,5.17165"
       style="display:inline;fill:none;stroke:#d6332a;stroke-width:1px;stroke-linecap:butt;stroke-linejoin:miter;stroke-opacity:1" />
    <path
       sodipodi:nodetypes="ccccc"
       inkscape:connector-curvature="0"
       id="path1022"
       d="m 889.32583,604.32062 -3.28164,3.05242 4.62956,4.46664 3.28164,-3.05243 z"
       style="display:inline;fill:#df3135;fill-opacity:1;stroke:none;stroke-width:1.05498636px;stroke-linecap:butt;stroke-linejoin:miter;stroke-opacity:1" />
    <path
       sodipodi:nodetypes="ccc"
       inkscape:connector-curvature="0"
       id="path1027-3"
       d="m 897.36079,603.62641 c 1.79426,-1.56482 3.4536,0.60449 2.07426,2.02616 z"
       style="display:inline;fill:#d6332a;fill-opacity:1;stroke:none;stroke-width:0.95599806px;stroke-linecap:butt;stroke-linejoin:miter;stroke-opacity:1" />
    <path
       sodipodi:nodetypes="cccc"
       inkscape:connector-curvature="0"
       id="path1001"
       d="m 900.18397,608.1101 1.49829,1.38946 -1.72171,1.72951 c -1.23519,-1.20478 -0.97962,-2.02312 0.22342,-3.11897 z"
       style="fill:#e6e6e6;fill-opacity:1;stroke:none;stroke-width:0.25;stroke-linecap:butt;stroke-linejoin:miter;stroke-opacity:1;stroke-miterlimit:4;stroke-dasharray:none" />
    <path
       sodipodi:nodetypes="cccc"
       inkscape:connector-curvature="0"
       id="path1001-2"
       d="m 886.23617,594.6305 -1.38946,-1.49829 -1.72951,1.72171 c 1.20478,1.23519 2.02312,0.97962 3.11897,-0.22342 z"
       style="fill:#e6e6e6;fill-opacity:1;stroke:none;stroke-width:0.25;stroke-linecap:butt;stroke-linejoin:miter;stroke-opacity:1;stroke-miterlimit:4;stroke-dasharray:none" />
    <path
       sodipodi:nodetypes="ccc"
       inkscape:connector-curvature="0"
       id="path1020"
       d="m 891.68375,599.67849 c -3.01769,3.03472 0.52113,6.24209 3.33666,3.38086 z"
       style="fill:#e6e6e6;fill-opacity:1;stroke:none;stroke-width:0.25;stroke-linecap:butt;stroke-linejoin:miter;stroke-opacity:1;stroke-miterlimit:4;stroke-dasharray:none" />
    <path
       sodipodi:nodetypes="ccc"
       inkscape:connector-curvature="0"
       id="path1027"
       d="m 888.73457,595.20846 c 1.79426,-1.56481 3.41616,0.60449 2.03682,2.02617 z"
       style="fill:#d6332a;fill-opacity:1;stroke:none;stroke-width:0.95599806px;stroke-linecap:butt;stroke-linejoin:miter;stroke-opacity:1" />
  </g>
</svg>
