<?xml version="1.0" encoding="utf-8"?>
<!-- Generator: Adobe Illustrator 22.1.0, SVG Export Plug-In . SVG Version: 6.00 Build 0)  -->
<svg version="1.1" id="Layer_4_1_" xmlns="http://www.w3.org/2000/svg" xmlns:xlink="http://www.w3.org/1999/xlink" x="0px" y="0px"
	 viewBox="0 0 37 37" style="enable-background:new 0 0 37 37;" xml:space="preserve">
<style type="text/css">
	.st0{fill:#241C1C;}
	.st1{fill:#FF5300;}
	.st2{fill:#F72626;}
</style>
<path class="st0" d="M34.5,15.1l-4.8-3.5c-0.2-0.2-0.5-0.3-0.8-0.3h-8.1h-4.7H8c-0.3,0-0.5,0.1-0.8,0.3l-4.8,3.5
	c-0.3,0.3-0.6,0.7-0.6,1.1v0.3v5.1v0h2.7L6,25.2l-1.4,3.6H1.9v2c0,0.4,0.2,0.8,0.6,1.1l4.9,3.6c0.2,0.2,0.5,0.3,0.8,0.3h8h4.7h8
	c0.3,0,0.5-0.1,0.8-0.3l4.9-3.6c0.4-0.3,0.6-0.7,0.6-1.1v-2v-7.1v-5.1v-0.3C35,15.8,34.8,15.4,34.5,15.1z M34.6,17.7
	c0,0.6-0.5,1.2-1.2,1.2c-0.6,0-1.2-0.5-1.2-1.2c0-0.6,0.5-1.2,1.2-1.2C34,16.5,34.6,17.1,34.6,17.7z M4.9,13.9h27l0.9,0.8H4.1
	L4.9,13.9z M20.5,21.7l2.1,3.6l-2.1,3.6h-4.1l-2.1-3.6l2.1-3.6H20.5z M17.3,17.7c0-0.6,0.5-1.2,1.2-1.2s1.2,0.5,1.2,1.2
	c0,0.6-0.5,1.2-1.2,1.2S17.3,18.3,17.3,17.7z M3.5,18.9c-0.6,0-1.2-0.5-1.2-1.2c0-0.6,0.5-1.2,1.2-1.2s1.2,0.5,1.2,1.2
	C4.6,18.3,4.1,18.9,3.5,18.9z M11.5,34.6H7.7L5.8,31l1.9-3.6h3.8l1.9,3.6L11.5,34.6z M8.4,25.2c0-0.6,0.5-1.2,1.2-1.2
	c0.6,0,1.2,0.5,1.2,1.2s-0.5,1.2-1.2,1.2C9,26.4,8.4,25.9,8.4,25.2z M11.5,23.1H7.7l-1.9-3.6L7.7,16h3.8l1.9,3.6L11.5,23.1z
	 M13.6,33.2l0.3-0.6H23l0.3,0.6H13.6z M29.1,34.6h-3.8L23.5,31l1.9-3.6h3.8L31,31L29.1,34.6z M26.1,25.2c0-0.6,0.5-1.2,1.2-1.2
	s1.2,0.5,1.2,1.2s-0.5,1.2-1.2,1.2S26.1,25.9,26.1,25.2z M29.1,23.1h-3.8l-1.9-3.6l1.9-3.6h3.8l1.9,3.6L29.1,23.1z M35,28.8h-2.3
	l-1.4-3.6l1.4-3.6H35V28.8z"/>
<circle class="st1" cx="18.4" cy="25.2" r="1.8"/>
<ellipse class="st1" cx="2.2" cy="25.2" rx="1.2" ry="1.8"/>
<ellipse class="st1" cx="34.8" cy="25.2" rx="1.2" ry="1.8"/>
<ellipse class="st1" cx="9.2" cy="19.6" rx="1.7" ry="1.8"/>
<ellipse class="st1" cx="9.2" cy="31" rx="1.7" ry="1.8"/>
<ellipse class="st1" cx="27.7" cy="19.6" rx="1.7" ry="1.8"/>
<ellipse class="st1" cx="27.7" cy="31" rx="1.7" ry="1.8"/>
<polygon class="st2" points="28.7,7.3 25,7.3 23.6,5.9 27.2,5.9 "/>
<path class="st0" d="M14.6,7.5L16.9,5h-7C9.1,5,8.4,5.7,8.4,6.5v2L7.7,9.8l6.8,0V7.5z"/>
<polygon class="st0" points="28.5,8 15.3,8 15.3,9.8 29,9.8 28.5,9 "/>
<path class="st0" d="M21.6,5h-3.8l-2.1,2.3h8.3L21.6,5z M21.1,6.9c-0.5,0-0.8-0.4-0.8-0.8s0.4-0.8,0.8-0.8c0.5,0,0.8,0.4,0.8,0.8
	S21.5,6.9,21.1,6.9z"/>
<path class="st0" d="M30.3,1.3c-0.7,0-1.2,0.1-1.6,0.2l5.1,6.7c0.4-0.1,0.8-0.2,0.8-0.2V5.8c0,0,1.4,0.1,1.4-0.8
	C35.9,3.7,31.8,1.3,30.3,1.3z"/>
<path class="st0" d="M22.2,1.5c-0.4-0.1-0.7-0.2-0.7-0.2c-3.5,0-3.7,2.9-3.7,2.9h4.3c0-0.3,0.1-0.5,0.5-0.7
	C22.3,2.8,22.2,2.1,22.2,1.5z"/>
<path class="st0" d="M28,1.6h-4.9c0,0-0.1,0-0.1,0c0,0.6,0.1,1.1,0.3,1.7c0.5-0.1,1.2-0.1,2.2-0.1c2.4,0,4,2,4,2s2.1,4.1,2.6,3.7
	c0.3-0.2,0.6-0.4,1-0.6L28,1.6z"/>
</svg>
