<?xml version="1.0" encoding="UTF-8" standalone="no"?>
<!-- Created with Inkscape (http://www.inkscape.org/) -->

<svg
   xmlns:dc="http://purl.org/dc/elements/1.1/"
   xmlns:cc="http://creativecommons.org/ns#"
   xmlns:rdf="http://www.w3.org/1999/02/22-rdf-syntax-ns#"
   xmlns:svg="http://www.w3.org/2000/svg"
   xmlns="http://www.w3.org/2000/svg"
   xmlns:sodipodi="http://sodipodi.sourceforge.net/DTD/sodipodi-0.dtd"
   xmlns:inkscape="http://www.inkscape.org/namespaces/inkscape"
   version="1.1"
   id="svg2"
   width="160"
   height="151"
   viewBox="0 0 160 151"
   sodipodi:docname="Special Heavy Rounds.svg"
   inkscape:version="0.92.4 (5da689c313, 2019-01-14)">
  <metadata
     id="metadata8">
    <rdf:RDF>
      <cc:Work
         rdf:about="">
        <dc:format>image/svg+xml</dc:format>
        <dc:type
           rdf:resource="http://purl.org/dc/dcmitype/StillImage" />
        <dc:title></dc:title>
      </cc:Work>
    </rdf:RDF>
  </metadata>
  <defs
     id="defs6" />
  <sodipodi:namedview
     pagecolor="#ffffff"
     bordercolor="#666666"
     borderopacity="1"
     objecttolerance="10"
     gridtolerance="10"
     guidetolerance="10"
     inkscape:pageopacity="0"
     inkscape:pageshadow="2"
     inkscape:window-width="1366"
     inkscape:window-height="705"
     id="namedview4"
     showgrid="false"
     inkscape:zoom="2"
     inkscape:cx="84.494843"
     inkscape:cy="36.820868"
     inkscape:window-x="-8"
     inkscape:window-y="-8"
     inkscape:window-maximized="1"
     inkscape:current-layer="layer5"
     inkscape:pagecheckerboard="true">
    <inkscape:grid
       type="xygrid"
       id="grid821" />
  </sodipodi:namedview>
  <g
     inkscape:groupmode="layer"
     id="layer5"
     inkscape:label="Layer 1"
     style="display:inline">
    <g
       style="display:inline"
       id="g945"
       transform="matrix(1,0,0,1.0059122,-0.05223835,-0.9987945)">
      <g
         style="display:inline"
         inkscape:label="Layer 3"
         id="layer3">
        <path
           sodipodi:nodetypes="cccccccccccccccccccccccccccccccccccccc"
           inkscape:connector-curvature="0"
           id="path851-8"
           d="M 19,1 0.09960937,32 68,149 H 91 L 159,32 141,1 Z m 1.417969,2 H 57 l 4,6 h 38 l 4,-6 h 36 l 4,7 -4,6 6,11 h 8 l 3,5 -20,35 h -6 l -19,31 3,7 -24,42 h -4 l -1,-10 h -9 l -2,10 H 70 L 45.505859,105 48.314453,97 30,66.376953 24,66.322266 4,31 7,26 H 17 L 22.484375,17 17,8 Z"
           style="display:inline;fill:#fde03d;fill-opacity:1;stroke:none;stroke-width:1px;stroke-linecap:butt;stroke-linejoin:miter;stroke-opacity:1" />
      </g>
      <g
         style="display:inline"
         inkscape:label="Layer 4"
         id="layer4">
        <g
           id="g888">
          <path
             style="display:inline;fill:#594200;fill-opacity:1;stroke:#fde03d;stroke-width:1px;stroke-linecap:butt;stroke-linejoin:miter;stroke-opacity:1"
             d="m 28.079449,12.476695 h 26 c 0.719831,2.638289 3.237064,6.072805 7.387931,6.043509 L 99.666132,18.2506 c 4.119948,-0.02908 6.352488,-3.378101 6.413318,-5.773905 h 27 c -2.54218,1.761252 -5.24262,5.401402 -3.99827,7.23452 L 139.22791,34.65892 C 140.28988,36.223364 143.1859,36.34751 144,36 l -13,23 c -5.62426,-2.315683 -8.00788,1.71076 -8.74028,3.020749 L 104.00903,94.664364 C 102.44601,97.46001 104.63119,101.02069 106,104 l -16,28 -2,-3 H 72 l -2,3 -15,-27 c 0.877527,-3.26886 2.759132,-7.297634 0.974006,-10.497143 L 37.003412,60.501562 C 35.250044,57.358974 30.27425,57.60526 28.649364,57.894597 L 15,35 c 2.521041,1.254615 6.236591,2.545143 7.686165,0.322234 L 33.292276,19.057862 c 1.486916,-2.280173 -3.118678,-4.820531 -5.212827,-6.581167 z"
             id="path835"
             inkscape:connector-curvature="0"
             sodipodi:nodetypes="ccssccssccssccccccssccssc" />
        </g>
        <path
           sodipodi:nodetypes="ccccccc"
           inkscape:connector-curvature="0"
           id="path851-5"
           d="M 68,149 H 91 L 159,32 141,1 H 19 L 0.099311,32 Z"
           style="display:inline;fill:none;stroke:none;stroke-width:1px;stroke-linecap:butt;stroke-linejoin:miter;stroke-opacity:1" />
      </g>
    </g>
    <g
       style="display:inline"
       id="g1035">
      <path
         inkscape:connector-curvature="0"
         id="path873-5"
         d="m 56,54 h 13 v 8 l 4,6 H 53 l 3,-6 z"
         style="display:inline;fill:#ffff5d;fill-opacity:1;stroke:none;stroke-width:1px;stroke-linecap:butt;stroke-linejoin:miter;stroke-opacity:1" />
      <g
         id="g970">
        <path
           style="display:inline;fill:#ffff5d;fill-opacity:1;stroke:none;stroke-width:1.25537598px;stroke-linecap:butt;stroke-linejoin:miter;stroke-opacity:1"
           d="m 87.117188,120.95928 8.872415,0.005 9.398247,-17.30477 c -1.15653,-2.95412 -3.40584,-6.102452 -2.03642,-9.360405 l 5.67515,-10.183075 0.0125,-12.112124 H 87.039063 Z"
           id="path829-8-8"
           inkscape:connector-curvature="0"
           sodipodi:nodetypes="cccccccc" />
        <g
           style="display:inline;fill:#b5e5d3;fill-opacity:1"
           id="g850"
           transform="matrix(0,1.1586075,-1.3602268,0,142.72888,-16.392792)">
          <g
             id="g866"
             style="fill:#b5e5d3;fill-opacity:1">
            <path
               style="fill:#ffff5d;fill-opacity:1;stroke:none;stroke-width:1px;stroke-linecap:butt;stroke-linejoin:miter;stroke-opacity:1"
               d="m 118.58104,50.541874 -8e-5,6.924035 -14.05572,6.711099 c -2.20642,-0.322286 -4.963626,-1.760372 -8.290527,-1.078519 -1.641015,0.435477 -4.721421,2.38805 -7.926464,3.617503 L 76.288894,66.715647 V 50.541874 Z"
               id="path829-8"
               inkscape:connector-curvature="0"
               sodipodi:nodetypes="cccccccc" />
          </g>
          <path
             sodipodi:nodetypes="cccc"
             inkscape:connector-curvature="0"
             id="path868"
             d="m 58.16706,28.472369 v 9.55723 c -8.631051,0 -12.946576,-1.470343 -21.674259,-5.077072 8.727683,-3.009815 13.043208,-4.480158 21.674259,-4.480158 z"
             style="display:inline;fill:#ffff5d;fill-opacity:1;stroke:none;stroke-width:1px;stroke-linecap:butt;stroke-linejoin:miter;stroke-opacity:1" />
          <path
             sodipodi:nodetypes="cccc"
             inkscape:connector-curvature="0"
             id="path868-8"
             d="m 58.16706,54.203373 v 9.557229 c -8.631051,0 -12.946576,-1.470343 -21.09436,-5.146199 8.147784,-2.940687 12.463309,-4.41103 21.09436,-4.41103 z"
             style="display:inline;fill:#ffff5d;fill-opacity:1;stroke:none;stroke-width:1px;stroke-linecap:butt;stroke-linejoin:miter;stroke-opacity:1" />
        </g>
        <path
           style="display:inline;fill:#ffff5d;fill-opacity:1;stroke:none;stroke-width:1px;stroke-linecap:butt;stroke-linejoin:miter;stroke-opacity:1"
           d="m 91,54 h 13 v 8 l 4,6 H 88 l 3,-6 z"
           id="path873"
           inkscape:connector-curvature="0" />
        <path
           style="display:inline;fill:#ffff5d;fill-opacity:1;stroke:none;stroke-width:1px;stroke-linecap:butt;stroke-linejoin:miter;stroke-opacity:1"
           d="m 67.871094,127 h 5.49903 c -0.511341,0.25567 -0.876322,0.72307 -1.126193,1.27067 l -0.543701,-0.006 -1.714025,2.55281 z"
           id="path897"
           inkscape:connector-curvature="0"
           sodipodi:nodetypes="cccccc" />
      </g>
    </g>
    <path
       style="display:inline;fill:#ffff5d;fill-opacity:1;stroke:none;stroke-width:1px;stroke-linecap:butt;stroke-linejoin:miter;stroke-opacity:1"
       d="m 92.077431,127.01998 h -5.538093 c 0.511341,0.25567 0.880228,0.69573 1.130099,1.24333 l 0.539795,-0.002 1.714025,2.57624 z"
       id="path897-34"
       inkscape:connector-curvature="0"
       sodipodi:nodetypes="cccccc" />
  </g>
</svg>
