<?xml version="1.0" encoding="UTF-8" standalone="no"?>
<!-- Created with Inkscape (http://www.inkscape.org/) -->

<svg
   xmlns:dc="http://purl.org/dc/elements/1.1/"
   xmlns:cc="http://creativecommons.org/ns#"
   xmlns:rdf="http://www.w3.org/1999/02/22-rdf-syntax-ns#"
   xmlns:svg="http://www.w3.org/2000/svg"
   xmlns="http://www.w3.org/2000/svg"
   xmlns:sodipodi="http://sodipodi.sourceforge.net/DTD/sodipodi-0.dtd"
   xmlns:inkscape="http://www.inkscape.org/namespaces/inkscape"
   version="1.1"
   id="svg2"
   width="159.6962"
   height="150.92645"
   viewBox="0 0 159.6962 150.92645"
   sodipodi:docname="Special Shotgun Shells.svg"
   inkscape:version="0.92.4 (5da689c313, 2019-01-14)">
  <metadata
     id="metadata8">
    <rdf:RDF>
      <cc:Work
         rdf:about="">
        <dc:format>image/svg+xml</dc:format>
        <dc:type
           rdf:resource="http://purl.org/dc/dcmitype/StillImage" />
        <dc:title></dc:title>
      </cc:Work>
    </rdf:RDF>
  </metadata>
  <defs
     id="defs6" />
  <sodipodi:namedview
     pagecolor="#ffffff"
     bordercolor="#666666"
     borderopacity="1"
     objecttolerance="10"
     gridtolerance="10"
     guidetolerance="10"
     inkscape:pageopacity="0"
     inkscape:pageshadow="2"
     inkscape:window-width="1366"
     inkscape:window-height="705"
     id="namedview4"
     showgrid="false"
     inkscape:zoom="2"
     inkscape:cx="49.876853"
     inkscape:cy="79.851958"
     inkscape:window-x="-8"
     inkscape:window-y="-8"
     inkscape:window-maximized="1"
     inkscape:current-layer="layer6"
     inkscape:pagecheckerboard="true"
     fit-margin-top="0"
     fit-margin-left="0"
     fit-margin-right="0"
     fit-margin-bottom="0">
    <inkscape:grid
       type="xygrid"
       id="grid821"
       originx="-0.22293114"
       originy="-0.081100204" />
  </sodipodi:namedview>
  <g
     inkscape:groupmode="layer"
     id="layer6"
     inkscape:label="Layer 1"
     style="display:inline"
     transform="translate(-0.22293114,0.00755872)">
    <g
       style="display:inline"
       inkscape:label="Layer 1"
       id="layer5"
       transform="matrix(1.0050063,0,0,1.0137797,0.17562283,-0.0147745)">
      <g
         transform="matrix(1,0,0,1.0059122,-0.05223835,-0.9987945)"
         id="g945"
         style="display:inline">
        <g
           id="layer3"
           inkscape:label="Layer 3"
           style="display:inline">
          <path
             style="display:inline;fill:#fde03d;fill-opacity:1;stroke:none;stroke-width:1px;stroke-linecap:butt;stroke-linejoin:miter;stroke-opacity:1"
             d="M 19,1 0.09960937,32 68,149 H 91 L 159,32 141,1 Z m 1.417969,2 H 57 l 4,6 h 38 l 4,-6 h 36 l 4,7 -4,6 6,11 h 8 l 3,5 -20,35 h -6 l -19,31 3,7 -24,42 h -4 l -1,-10 h -9 l -2,10 H 70 L 45.505859,105 48.314453,97 30,66.376953 24,66.322266 4,31 7,26 H 17 L 22.484375,17 17,8 Z"
             id="path851-8"
             inkscape:connector-curvature="0"
             sodipodi:nodetypes="cccccccccccccccccccccccccccccccccccccc" />
        </g>
        <g
           id="layer4"
           inkscape:label="Layer 4"
           style="display:inline">
          <g
             id="g888">
            <path
               sodipodi:nodetypes="ccssccssccssccccccssccssc"
               inkscape:connector-curvature="0"
               id="path835"
               d="m 28.079449,12.476695 h 26 c 0.719831,2.638289 3.237064,6.072805 7.387931,6.043509 L 99.666132,18.2506 c 4.119948,-0.02908 6.352488,-3.378101 6.413318,-5.773905 h 27 c -2.54218,1.761252 -5.24262,5.401402 -3.99827,7.23452 L 139.22791,34.65892 C 140.28988,36.223364 143.1859,36.34751 144,36 l -13,23 c -5.62426,-2.315683 -8.00788,1.71076 -8.74028,3.020749 L 104.00903,94.664364 C 102.44601,97.46001 104.63119,101.02069 106,104 l -16,28 -2,-3 H 72 l -2,3 -15,-27 c 0.877527,-3.26886 2.759132,-7.297634 0.974006,-10.497143 L 37.003412,60.501562 C 35.250044,57.358974 30.27425,57.60526 28.649364,57.894597 L 15,35 c 2.521041,1.254615 6.236591,2.545143 7.686165,0.322234 L 33.292276,19.057862 c 1.486916,-2.280173 -3.118678,-4.820531 -5.212827,-6.581167 z"
               style="display:inline;fill:#594200;fill-opacity:1;stroke:#fde03d;stroke-width:1px;stroke-linecap:butt;stroke-linejoin:miter;stroke-opacity:1" />
          </g>
          <path
             style="display:inline;fill:none;stroke:none;stroke-width:1px;stroke-linecap:butt;stroke-linejoin:miter;stroke-opacity:1"
             d="M 68,149 H 91 L 159,32 141,1 H 19 L 0.099311,32 Z"
             id="path851-5"
             inkscape:connector-curvature="0"
             sodipodi:nodetypes="ccccccc" />
        </g>
      </g>
      <g
         id="g1035"
         style="display:inline">
        <g
           id="g970">
          <g
             transform="matrix(0,1.1586075,-1.3602268,0,142.72888,-16.392792)"
             id="g850"
             style="display:inline;fill:#b5e5d3;fill-opacity:1">
            <g
               style="fill:#b5e5d3;fill-opacity:1"
               id="g866" />
          </g>
        </g>
      </g>
    </g>
    <g
       id="g12868"
       style="display:inline;fill:#ff957f;fill-opacity:1;stroke:none">
      <path
         sodipodi:nodetypes="ccccc"
         inkscape:connector-curvature="0"
         id="path12830"
         d="M 43,26 V 50 H 76 V 26 Z"
         style="fill:#ffff5d;fill-opacity:1;stroke:none;stroke-width:1px;stroke-linecap:butt;stroke-linejoin:miter;stroke-opacity:1" />
      <path
         sodipodi:nodetypes="ccccc"
         inkscape:connector-curvature="0"
         id="path12830-8"
         d="m 85,26 v 24 h 33 V 26 Z"
         style="fill:#ffff5d;fill-opacity:1;stroke:none;stroke-width:1px;stroke-linecap:butt;stroke-linejoin:miter;stroke-opacity:1" />
      <path
         inkscape:connector-curvature="0"
         id="path12847"
         d="M 42.1461,54 41.933594,68.228118 56.211417,94 c 0.820313,2.4375 2.712469,2.156255 -0.295344,12 l 8.787951,16 H 76 V 54 H 64.93359 l -3,7 h -7 l -3,-7 z"
         style="fill:#ffff5d;fill-opacity:1;stroke:none;stroke-width:1px;stroke-linecap:butt;stroke-linejoin:miter;stroke-opacity:1"
         sodipodi:nodetypes="cccccccccccc" />
      <path
         sodipodi:nodetypes="cccccccccccc"
         inkscape:connector-curvature="0"
         id="path12847-8"
         d="m 118,54 v 16.25297 l -13.25071,24.04599 c -2.79348,4.492744 0.60851,8.30237 1.34446,10.70104 l -9.571617,17 H 85 V 54 h 9 l 3,7 h 7 l 3,-7 z"
         style="fill:#ffff5d;fill-opacity:1;stroke:none;stroke-width:1px;stroke-linecap:butt;stroke-linejoin:miter;stroke-opacity:1" />
    </g>
  </g>
</svg>
