<?xml version="1.0" encoding="utf-8"?>
<!-- Generator: Adobe Illustrator 22.1.0, SVG Export Plug-In . SVG Version: 6.00 Build 0)  -->
<svg version="1.1" id="Layer_4_1_" xmlns="http://www.w3.org/2000/svg" xmlns:xlink="http://www.w3.org/1999/xlink" x="0px" y="0px"
	 viewBox="0 0 37 37" style="enable-background:new 0 0 37 37;" xml:space="preserve">
<style type="text/css">
	.st0{fill:#241C1C;}
</style>
<g>
	<g>
		<path class="st0" d="M24.7,7.9c-1,0-2,1.5-2.6,3.9c0.5-0.8,1-1.3,1.5-1.3c1.6,0,3,3.9,3,8.7s-1.3,8.7-3,8.7
			c-0.6,0-1.1-0.5-1.6-1.3c0.6,2.5,1.6,4,2.6,4c1.9,0,3.4-5.1,3.4-11.3C28.1,13,26.6,7.9,24.7,7.9z"/>
		<path class="st0" d="M23.8,12.5c-0.7,0-1.4,1.2-1.7,3c0.3-0.5,0.6-0.9,1-0.9c1,0,1.6,2.1,1.6,4.7s-0.6,4.7-1.6,4.7
			c-0.3,0-0.6-0.3-0.9-0.7c0.4,1.5,1,2.5,1.6,2.5c1.1,0,2.1-3,2.1-6.8C25.8,15.5,24.9,12.5,23.8,12.5z"/>
		<path class="st0" d="M10.6,8.9l6.5,3.7c0.1,0,0.1,0.1,0.2,0.2l4.7,4.7L15.9,14c-0.1,0-0.1-0.1-0.2-0.1L10.6,8.9z"/>
		<path class="st0" d="M9.7,28.3l6.9-4.7c0.1-0.1,0.2-0.1,0.2-0.1l6.7-3.2L18,24.7c-0.1,0.1-0.2,0.1-0.2,0.1L9.7,28.3z"/>
		<path class="st0" d="M8.6,14.2l7.2,1.4c0.1,0,0.2,0,0.2,0.1l6,2.9l-6.8-1.3c-0.1,0-0.2,0-0.2-0.1L8.6,14.2z"/>
		<path class="st0" d="M5.8,27.1l8-4.9c0.1-0.1,0.2-0.1,0.3-0.1l8.1-2.4l-7.6,4.7c-0.1,0.1-0.2,0.1-0.3,0.1L5.8,27.1z"/>
		<path class="st0" d="M9.6,12l3,0.7c0,0,0.1,0,0.1,0l2.3,1.5l-2.9-0.5c0,0-0.1,0-0.1,0L9.6,12z"/>
		<path class="st0" d="M11.3,20.2l2.4-0.9c0,0,0.1,0,0.1,0l2.2-0.1l-2.2,1c0,0-0.1,0-0.1,0L11.3,20.2z"/>
		<path class="st0" d="M17.7,28.3l0.2-1.8c0-0.2,0.1-0.4,0.3-0.5l1.1-0.9l0,1.7c0,0.2-0.1,0.4-0.3,0.6L17.7,28.3z"/>
	</g>
	<path class="st0" d="M30.8,2.3H6.2C4.7,3.8,3.8,4.7,2.3,6.2v24.6c1.5,1.5,2.4,2.4,3.9,3.9h24.6c1.5-1.5,2.4-2.4,3.9-3.9V6.2
		C33.2,4.7,32.3,3.8,30.8,2.3z M32.2,30c-0.8,0.8-1.3,1.3-2.1,2.1H6.9c-0.8-0.8-1.3-1.3-2.1-2.1V7.2C5.6,6.3,6.1,5.9,6.9,5h18.3
		c2.7,2.7,4.3,4.3,7,7V30z"/>
	<g>
		<path class="st0" d="M7.2,2V1.1c0-0.4,0.4-0.8,0.8-0.8h2.4c0.4,0,0.8,0.4,0.8,0.8V2H7.2z"/>
		<path class="st0" d="M11.8,2V1.1c0-0.4,0.4-0.8,0.8-0.8H15c0.4,0,0.8,0.4,0.8,0.8V2H11.8z"/>
		<path class="st0" d="M16.5,2V1.1c0-0.4,0.4-0.8,0.8-0.8h2.4c0.4,0,0.8,0.4,0.8,0.8V2H16.5z"/>
		<path class="st0" d="M25.7,2V1.1c0-0.4,0.4-0.8,0.8-0.8h2.4c0.4,0,0.8,0.4,0.8,0.8V2H25.7z"/>
		<path class="st0" d="M21.1,2V1.1c0-0.4,0.4-0.8,0.8-0.8h2.4c0.4,0,0.8,0.4,0.8,0.8V2H21.1z"/>
	</g>
	<g>
		<path class="st0" d="M7.1,35v0.9c0,0.4,0.4,0.8,0.8,0.8h2.4c0.4,0,0.8-0.4,0.8-0.8V35H7.1z"/>
		<path class="st0" d="M11.8,35v0.9c0,0.4,0.4,0.8,0.8,0.8H15c0.4,0,0.8-0.4,0.8-0.8V35H11.8z"/>
		<path class="st0" d="M16.4,35v0.9c0,0.4,0.4,0.8,0.8,0.8h2.4c0.4,0,0.8-0.4,0.8-0.8V35H16.4z"/>
		<path class="st0" d="M25.7,35v0.9c0,0.4,0.4,0.8,0.8,0.8h2.4c0.4,0,0.8-0.4,0.8-0.8V35H25.7z"/>
		<path class="st0" d="M21,35v0.9c0,0.4,0.4,0.8,0.8,0.8h2.4c0.4,0,0.8-0.4,0.8-0.8V35H21z"/>
	</g>
	<g>
		<path class="st0" d="M2,29.7H1.1c-0.4,0-0.8-0.4-0.8-0.8v-2.4c0-0.4,0.4-0.8,0.8-0.8H2V29.7z"/>
		<path class="st0" d="M2,25.1H1.1c-0.4,0-0.8-0.4-0.8-0.8v-2.4c0-0.4,0.4-0.8,0.8-0.8H2V25.1z"/>
		<path class="st0" d="M2,20.5H1.1c-0.4,0-0.8-0.4-0.8-0.8v-2.4c0-0.4,0.4-0.8,0.8-0.8H2V20.5z"/>
		<path class="st0" d="M2,11.2H1.1c-0.4,0-0.8-0.4-0.8-0.8V8c0-0.4,0.4-0.8,0.8-0.8H2V11.2z"/>
		<path class="st0" d="M2,15.9H1.1c-0.4,0-0.8-0.4-0.8-0.8v-2.4c0-0.4,0.4-0.8,0.8-0.8H2V15.9z"/>
	</g>
	<g>
		<path class="st0" d="M35,29.8h0.9c0.4,0,0.8-0.4,0.8-0.8v-2.4c0-0.4-0.4-0.8-0.8-0.8H35V29.8z"/>
		<path class="st0" d="M35,25.2h0.9c0.4,0,0.8-0.4,0.8-0.8V22c0-0.4-0.4-0.8-0.8-0.8H35V25.2z"/>
		<path class="st0" d="M35,20.6h0.9c0.4,0,0.8-0.4,0.8-0.8v-2.4c0-0.4-0.4-0.8-0.8-0.8H35V20.6z"/>
		<path class="st0" d="M35,11.3h0.9c0.4,0,0.8-0.4,0.8-0.8V8.1c0-0.4-0.4-0.8-0.8-0.8H35V11.3z"/>
		<path class="st0" d="M35,15.9h0.9c0.4,0,0.8-0.4,0.8-0.8v-2.4c0-0.4-0.4-0.8-0.8-0.8H35V15.9z"/>
	</g>
</g>
</svg>
